<svg width="368" height="298" viewBox="0 0 368 298" fill="none" xmlns="http://www.w3.org/2000/svg">
<path d="M279.875 54.6572C255.62 30.4088 222.114 15.4072 185.102 15.4072V6.23131C185.102 4.37913 183.586 2.85631 181.731 2.89526C143.805 3.75229 109.425 19.023 83.852 43.4414C82.5133 44.7163 82.5133 46.8589 83.8201 48.1763L90.3116 54.6749C66.0562 78.9338 51.0581 112.44 51.0581 149.451H41.8822C40.0265 149.451 38.5072 150.971 38.5497 152.823C39.4067 190.748 54.6739 225.129 79.0887 250.701C80.3672 252.04 82.5133 252.04 83.8237 250.73L90.3258 244.238C114.585 268.49 148.09 283.492 185.099 283.492V292.668C185.099 294.52 186.621 296.039 188.474 295.997C226.403 295.143 260.78 279.872 286.352 255.458C287.695 254.176 287.691 252.033 286.384 250.723L279.893 244.221C304.145 219.962 319.143 186.459 319.143 149.448H328.322C330.174 149.448 331.697 147.925 331.655 146.073C330.798 108.147 315.53 73.7668 291.112 48.194C289.837 46.8553 287.695 46.8553 286.377 48.1657L279.875 54.6536V54.6572Z" fill="#FF788F" stroke="white" stroke-width="2" stroke-linecap="round" stroke-linejoin="round"/>
<path d="M92.5254 185.762C92.961 191.155 93.6799 197.006 94.8061 203.225C96.4139 212.092 98.5423 220.032 100.802 226.935C100.635 213.828 100.469 200.721 100.302 187.614L92.5254 185.762Z" fill="black" stroke="black" stroke-width="1.2" stroke-linecap="round" stroke-linejoin="round"/>
<path d="M88.5801 183.305L98.0428 193.249" stroke="#FF788F" stroke-width="1.2" stroke-linecap="round" stroke-linejoin="round"/>
<path d="M318.387 156.5L204.198 268.882C199.803 272.339 193.499 271.889 189.642 267.837L41.8787 112.676C37.4695 108.047 38.0043 100.628 43.0261 96.6754L160.429 4.32136C164.831 0.85782 171.145 1.31821 174.998 5.38026L318.387 156.5Z" fill="black" stroke="black" stroke-width="1.2" stroke-linecap="round" stroke-linejoin="round"/>
<path d="M304.16 200.999L202.154 281.244C196.063 286.036 187.323 285.409 181.982 279.792L38.7376 129.227C33.9106 124.152 32.6427 116.659 35.5326 110.28L39.6654 101.158L157.518 21.1101C161.92 17.6466 168.238 18.1069 172.091 22.1725L309 166.611C313.391 171.243 309.174 197.053 304.16 200.999Z" fill="black" stroke="black" stroke-width="1.2" stroke-linecap="round" stroke-linejoin="round"/>
<path d="M307.311 169.696L199.806 254.266C198.942 254.946 197.699 254.858 196.941 254.061L56.8592 106.92C55.9915 106.01 56.0977 104.551 57.0858 103.772L164.831 19.0109C165.699 18.331 166.938 18.4195 167.696 19.2199L307.534 166.551C308.398 167.462 308.292 168.921 307.307 169.696H307.311Z" fill="white"/>
<path d="M104.226 90.0001C104.144 89.9257 104.017 89.9151 103.921 89.9718L102.207 90.9598C102.122 91.0094 102.016 91.0023 101.934 90.9492C100.999 90.3188 99.8945 89.9151 98.7293 89.7841C98.6302 89.7734 98.5452 89.7097 98.5204 89.6212L97.9892 87.8185C97.9608 87.7194 97.8581 87.645 97.7448 87.6486C97.0719 87.6556 96.392 87.7265 95.712 87.8823C95.0321 88.0381 94.3981 88.2683 93.8067 88.5481C93.7075 88.5941 93.658 88.7039 93.6863 88.8031L94.2175 90.6057C94.2423 90.6942 94.2069 90.7863 94.1254 90.8394C93.1799 91.4521 92.4397 92.2808 91.9687 93.2299C91.9262 93.3113 91.8377 93.3645 91.735 93.3574L89.6951 93.2263C89.5818 93.2193 89.4755 93.283 89.4436 93.3822C89.0682 94.5509 88.9797 95.8152 89.2311 97.0901C89.2524 97.1928 89.348 97.2707 89.4649 97.2778L91.4941 97.4053C91.5968 97.4123 91.6818 97.4761 91.7102 97.5646C92.082 98.6235 92.7407 99.5372 93.5871 100.246C93.6615 100.309 93.6898 100.405 93.6544 100.49L92.9249 102.218C92.8824 102.314 92.9213 102.427 93.017 102.487C94.1467 103.203 95.4499 103.684 96.824 103.879C96.9374 103.897 97.0471 103.837 97.0896 103.741L97.8156 102.02C97.8511 101.935 97.9396 101.882 98.0423 101.882C98.6195 101.892 99.2039 101.836 99.7847 101.705C100.365 101.57 100.907 101.368 101.407 101.113C101.495 101.067 101.601 101.078 101.679 101.134L103.262 102.328C103.351 102.395 103.482 102.399 103.57 102.335C104.661 101.574 105.536 100.6 106.127 99.4876C106.177 99.3956 106.149 99.2787 106.057 99.2114L104.466 98.0144C104.389 97.9542 104.36 97.8586 104.389 97.7736C104.739 96.7891 104.81 95.7089 104.551 94.6252C104.53 94.5332 104.569 94.4411 104.654 94.395L106.358 93.4105C106.453 93.3538 106.496 93.2441 106.457 93.1449C105.972 91.9231 105.2 90.8571 104.226 89.9965V90.0001ZM100.631 95.2166C101.017 96.5234 100.171 97.8515 98.7435 98.1773C97.3163 98.5031 95.8466 97.7098 95.4606 96.3995C95.0746 95.0927 95.921 93.7647 97.3482 93.4388C98.7754 93.113 100.245 93.9098 100.631 95.2166Z" fill="black"/>
<path d="M84.4859 104.161L85.2969 106.311C85.3961 106.57 85.304 106.849 85.0773 107.023C84.2522 107.66 83.5262 108.408 82.9277 109.247C82.7683 109.474 82.4744 109.591 82.1804 109.534L79.7439 109.066C79.4181 109.003 79.0852 109.151 78.9506 109.428C78.5292 110.306 78.2069 111.244 77.998 112.229C77.789 113.213 77.7076 114.194 77.7359 115.161C77.7465 115.466 77.9944 115.721 78.3203 115.785L80.7568 116.252C81.0507 116.309 81.2703 116.525 81.3269 116.794C81.5359 117.789 81.9007 118.745 82.4035 119.638C82.5417 119.882 82.5133 120.172 82.315 120.374L80.693 122.056C80.477 122.283 80.4522 122.62 80.6505 122.867C81.9255 124.458 83.5758 125.803 85.5094 126.784C85.8033 126.933 86.1681 126.869 86.3841 126.646L88.0061 124.968C88.2009 124.766 88.5161 124.702 88.7994 124.794C89.3094 124.964 89.8406 125.106 90.386 125.208C90.9314 125.315 91.4768 125.378 92.0186 125.41C92.3196 125.428 92.5817 125.601 92.6809 125.86L93.4918 128.006C93.6016 128.293 93.9133 128.488 94.2426 128.459C96.4242 128.268 98.4924 127.638 100.316 126.643C100.6 126.487 100.716 126.168 100.607 125.881L99.7956 123.732C99.6965 123.473 99.7885 123.193 100.015 123.02C100.84 122.382 101.566 121.639 102.165 120.796C102.324 120.569 102.618 120.452 102.912 120.509L105.349 120.976C105.674 121.04 106.007 120.891 106.142 120.619C106.563 119.74 106.886 118.802 107.095 117.817C107.304 116.833 107.385 115.852 107.357 114.885C107.346 114.58 107.098 114.325 106.772 114.262L104.336 113.794C104.042 113.738 103.822 113.522 103.766 113.252C103.557 112.257 103.192 111.301 102.689 110.409C102.551 110.164 102.579 109.874 102.778 109.672L104.4 107.99C104.616 107.763 104.64 107.427 104.442 107.179C103.167 105.589 101.517 104.243 99.5831 103.258C99.2892 103.11 98.9244 103.173 98.7084 103.397L97.0864 105.075C96.8916 105.277 96.5764 105.341 96.2931 105.245C95.7832 105.075 95.2519 104.934 94.7066 104.827C94.1612 104.721 93.6158 104.657 93.074 104.625C92.7729 104.608 92.5109 104.434 92.4117 104.172L91.6007 102.022C91.4909 101.736 91.1793 101.541 90.8499 101.569C88.6684 101.76 86.6002 102.391 84.7763 103.386C84.493 103.542 84.3761 103.86 84.4859 104.147V104.161ZM97.5504 115.204C97.4547 118.359 94.0408 120.41 90.7897 119.262C88.8207 118.568 87.4962 116.762 87.5528 114.85C87.6484 111.694 91.0624 109.644 94.3135 110.791C96.2825 111.485 97.607 113.291 97.5504 115.204Z" fill="#FF788F"/>
<path d="M179.811 62.7464L159.951 78.3713C158.538 79.4833 156.385 79.3204 155.138 78.0136L137.636 59.5945C136.39 58.2842 136.528 56.3187 137.941 55.2067L157.808 39.5782C159.221 38.4662 161.378 38.6291 162.621 39.9395L180.116 58.3621C181.359 59.6724 181.224 61.6344 179.811 62.7464Z" fill="#FF788F"/>
<path d="M173.823 61.151L159.08 72.7492C158.403 73.2805 157.373 73.2025 156.778 72.5757L143.788 58.9022C143.193 58.2753 143.257 57.3368 143.933 56.8021L158.68 45.2003C159.356 44.6691 160.387 44.747 160.982 45.3738L173.968 59.0509C174.563 59.6777 174.499 60.6162 173.823 61.1474V61.151Z" fill="white"/>
<path d="M113.473 88.653L138.096 69.2812" stroke="black" stroke-width="1.2" stroke-linecap="round" stroke-linejoin="round"/>
<path d="M120.407 95.9453L130.967 87.6406" stroke="black" stroke-width="1.2" stroke-linecap="round" stroke-linejoin="round"/>
<path d="M207.105 91.4908L187.252 107.109C185.839 108.221 183.686 108.061 182.443 106.751L164.958 88.3495C163.715 87.0392 163.85 85.0772 165.263 83.9652L185.124 68.3439C186.537 67.2318 188.69 67.3947 189.933 68.7051L207.41 87.1136C208.653 88.4239 208.515 90.3859 207.102 91.4979L207.105 91.4908Z" fill="#FF788F"/>
<path d="M201.124 89.895L186.384 101.49C185.708 102.021 184.677 101.943 184.082 101.32L171.103 87.6568C170.508 87.03 170.571 86.0915 171.248 85.5603L185.991 73.962C186.667 73.4308 187.698 73.5087 188.293 74.1355L201.269 87.7984C201.864 88.4253 201.796 89.3638 201.124 89.895V89.895Z" fill="white"/>
<path d="M140.802 117.391L157.674 104.121" stroke="black" stroke-width="1.2" stroke-linecap="round" stroke-linejoin="round"/>
<path d="M147.513 124.402C149.004 123.23 149.44 123.786 150.931 122.617C152.422 121.445 151.983 120.889 153.47 119.717C154.957 118.545 155.396 119.101 156.887 117.929C158.378 116.756 157.939 116.2 159.43 115.028C160.921 113.856 161.357 114.412 162.848 113.24C164.339 112.067 163.899 111.511 165.39 110.339C166.881 109.167 167.321 109.723 168.811 108.551" stroke="black" stroke-width="1.2" stroke-linecap="round" stroke-linejoin="round"/>
<path d="M234.382 120.215L214.539 135.826C213.126 136.938 210.976 136.779 209.733 135.468L192.263 117.081C191.02 115.771 191.158 113.812 192.568 112.7L212.418 97.0824C213.831 95.9704 215.984 96.1333 217.227 97.4401L234.69 115.834C235.933 117.141 235.795 119.103 234.382 120.215V120.215Z" fill="#FF788F"/>
<path d="M228.4 118.623L213.668 130.211C212.992 130.742 211.965 130.664 211.37 130.041L198.401 116.392C197.806 115.765 197.873 114.827 198.546 114.296L213.282 102.704C213.958 102.173 214.985 102.251 215.58 102.874L228.546 116.527C229.141 117.154 229.073 118.092 228.4 118.623V118.623Z" fill="white"/>
<path d="M168.11 146.112L192.713 126.758" stroke="black" stroke-width="1.2" stroke-linecap="round" stroke-linejoin="round"/>
<path d="M187.337 143.719L192.727 139.477" stroke="black" stroke-width="1.2" stroke-linecap="round" stroke-linejoin="round"/>
<path d="M175.034 153.395L183.466 146.762" stroke="black" stroke-width="1.2" stroke-linecap="round" stroke-linejoin="round"/>
<path d="M261.629 148.913L241.794 164.516C240.381 165.628 238.231 165.469 236.991 164.162L219.536 145.789C218.292 144.482 218.431 142.52 219.844 141.412L239.686 125.801C241.099 124.689 243.249 124.852 244.492 126.159L261.941 144.535C263.18 145.842 263.042 147.801 261.633 148.913H261.629Z" fill="#FF788F"/>
<path d="M255.655 147.32L240.929 158.904C240.253 159.435 239.226 159.358 238.631 158.734L225.673 145.096C225.078 144.469 225.145 143.534 225.818 143.003L240.547 131.415C241.223 130.884 242.25 130.962 242.845 131.585L255.8 145.227C256.395 145.854 256.328 146.789 255.651 147.32H255.655Z" fill="white"/>
<path d="M195.394 174.802L212.251 161.543" stroke="black" stroke-width="1.2" stroke-linecap="round" stroke-linejoin="round"/>
<path d="M212.641 173.505C214.043 172.4 214.482 172.956 215.888 171.851C217.294 170.746 216.855 170.19 218.261 169.085C219.667 167.98 220.102 168.536 221.508 167.431C222.914 166.327 222.475 165.771 223.881 164.666C225.287 163.561 225.723 164.117 227.129 163.012" stroke="black" stroke-width="1.2" stroke-linecap="round" stroke-linejoin="round"/>
<path d="M202.313 182.081L208.543 177.184" stroke="black" stroke-width="1.2" stroke-linecap="round" stroke-linejoin="round"/>
<path d="M288.856 177.585L269.027 193.182C267.618 194.29 265.468 194.134 264.225 192.827L246.784 174.472C245.541 173.165 245.679 171.207 247.092 170.095L266.927 154.491C268.337 153.383 270.49 153.542 271.73 154.849L289.164 173.211C290.404 174.518 290.266 176.477 288.856 177.585V177.585Z" fill="#FF788F"/>
<path d="M282.885 175.993L268.167 187.574C267.49 188.105 266.463 188.027 265.872 187.404L252.924 173.776C252.329 173.153 252.397 172.215 253.073 171.683L267.795 160.103C268.471 159.572 269.498 159.65 270.093 160.273L283.037 173.904C283.632 174.527 283.565 175.466 282.889 175.997L282.885 175.993Z" fill="white"/>
<path d="M240.334 189.562L247.24 184.133" stroke="black" stroke-width="1.2" stroke-linecap="round" stroke-linejoin="round"/>
<path d="M222.436 203.192C223.821 202.101 224.26 202.657 225.645 201.57C227.029 200.483 226.594 199.923 227.978 198.833C229.363 197.742 229.802 198.298 231.187 197.211C232.575 196.12 232.136 195.564 233.521 194.473C234.909 193.382 235.345 193.938 236.733 192.848" stroke="black" stroke-width="1.2" stroke-linecap="round" stroke-linejoin="round"/>
<path d="M229.569 210.739L244.553 198.953" stroke="black" stroke-width="1.2" stroke-linecap="round" stroke-linejoin="round"/>
<path d="M123.173 121.022L120.676 120.937C117.683 120.838 115.212 122.966 115.158 125.693L114.896 138.832C114.843 141.559 117.223 143.85 120.216 143.949L122.709 144.031C125.701 144.13 128.17 142.001 128.226 139.275L128.488 126.136C128.542 123.409 126.162 121.118 123.169 121.018L123.173 121.022ZM123.346 127.581L123.148 137.5C123.134 138.283 122.426 138.892 121.568 138.864C120.711 138.835 120.028 138.18 120.042 137.398L120.24 127.478C120.255 126.695 120.963 126.086 121.82 126.115C122.677 126.143 123.36 126.802 123.346 127.581Z" fill="black"/>
<path d="M122.539 133.616L117.698 133.456C114.705 133.357 112.237 135.486 112.18 138.213L111.918 151.351C111.865 154.078 114.245 156.37 117.238 156.465L122.079 156.625C125.071 156.724 127.54 154.595 127.593 151.868L127.855 138.733C127.908 136.006 125.528 133.715 122.536 133.616H122.539ZM122.66 140.373L122.468 149.885C122.451 150.778 121.643 151.475 120.662 151.443L118.863 151.383C117.882 151.351 117.103 150.601 117.121 149.708L117.308 140.196C117.326 139.303 118.134 138.606 119.115 138.638L120.914 138.698C121.895 138.73 122.674 139.48 122.656 140.373H122.66Z" fill="#FF788F"/>
<path d="M119.66 157.097C118.339 156.573 118.438 151.155 119.763 150.836" stroke="white" stroke-width="1.2" stroke-linecap="round" stroke-linejoin="round"/>
<path d="M121.866 126.57C120.545 126.046 120.662 120.858 121.987 120.539" stroke="white" stroke-width="1.2" stroke-linecap="round" stroke-linejoin="round"/>
<mask id="mask0_8526_17674" style="mask-type:alpha" maskUnits="userSpaceOnUse" x="111" y="132" width="10" height="15">
<rect x="111" y="132" width="10" height="15" fill="#D9D9D9"/>
</mask>
<g mask="url(#mask0_8526_17674)">
<path d="M123.173 121.018L120.676 120.933C117.683 120.834 115.212 122.962 115.158 125.689L114.896 138.828C114.843 141.555 117.223 143.846 120.216 143.945L122.709 144.027C125.701 144.126 128.17 141.998 128.226 139.271L128.488 126.132C128.542 123.405 126.162 121.114 123.169 121.014L123.173 121.018ZM123.346 127.577L123.148 137.496C123.134 138.279 122.426 138.888 121.568 138.86C120.711 138.832 120.028 138.176 120.042 137.394L120.24 127.474C120.255 126.691 120.963 126.082 121.82 126.111C122.677 126.139 123.36 126.798 123.346 127.577Z" fill="black"/>
</g>
<path d="M141.975 130.864C145.137 134.19 144.794 139.176 141.203 142.002C137.612 144.828 132.136 144.421 128.97 141.095C125.804 137.77 126.151 132.784 129.742 129.958C133.333 127.131 138.812 127.539 141.975 130.868V130.864Z" fill="white" stroke="#FF788F" stroke-width="1.2" stroke-linecap="round" stroke-linejoin="round"/>
<path d="M138.451 139.109C137.877 139.562 136.999 139.495 136.492 138.964L132.373 134.633C131.867 134.098 131.92 133.301 132.497 132.848C133.071 132.394 133.949 132.462 134.456 132.993L138.575 137.324C139.081 137.855 139.024 138.656 138.451 139.109Z" fill="#FF788F"/>
<path d="M132.094 138.637C131.587 138.102 131.64 137.305 132.218 136.852L136.892 133.176C137.466 132.723 138.344 132.79 138.851 133.321C139.357 133.856 139.301 134.653 138.727 135.106L134.052 138.782C133.478 139.235 132.6 139.168 132.094 138.637Z" fill="#FF788F"/>
<path d="M156.321 155.559C162.231 161.771 162.107 174.495 161.923 178.306C161.895 178.919 161.314 179.372 160.645 179.312C156.473 178.926 142.605 177.208 136.694 170.996C131.92 165.978 132.441 158.456 137.859 154.192C143.277 149.928 151.543 150.541 156.317 155.559H156.321Z" fill="#FF788F"/>
<path d="M153.289 157.944C156.586 161.411 156.225 166.607 152.482 169.55C148.739 172.493 143.033 172.071 139.733 168.608C136.436 165.141 136.797 159.945 140.54 156.999C144.283 154.052 149.992 154.477 153.289 157.944V157.944Z" fill="white"/>
<path d="M148.112 159.652C149.517 161.128 149.362 163.342 147.768 164.595C146.174 165.849 143.741 165.668 142.335 164.192C140.929 162.715 141.085 160.501 142.679 159.248C144.273 157.994 146.706 158.175 148.112 159.652Z" fill="black"/>
<path d="M152.482 169.55C154.482 167.978 155.506 165.761 155.534 163.509C152.974 162.145 149.673 162.312 147.343 164.15C145.009 165.984 144.354 168.931 145.469 171.431C147.924 171.732 150.484 171.13 152.485 169.554L152.482 169.55Z" fill="black"/>
<path d="M184.075 207.77L178.179 212.409L173.529 207.522L179.425 202.883L184.075 207.77Z" fill="black" stroke="black" stroke-width="1.2" stroke-linecap="round" stroke-linejoin="round"/>
<path d="M195.868 198.493L189.972 203.129L182.117 194.874L188.013 190.234L195.868 198.493Z" fill="#FF788F" stroke="#FF788F" stroke-width="1.2" stroke-linecap="round" stroke-linejoin="round"/>
<path d="M195.868 198.492L178.179 212.407" stroke="black" stroke-width="1.2" stroke-linecap="round" stroke-linejoin="round"/>
<path d="M177.449 176.93L172.417 183.815C172.261 184.027 172.424 184.318 172.707 184.332L174.977 184.431C175.183 184.442 175.342 184.601 175.328 184.789L174.68 193.564C174.666 193.741 174.503 193.876 174.308 193.865L168.613 193.621C168.418 193.614 168.252 193.745 168.241 193.922L167.452 204.631C167.437 204.812 167.59 204.975 167.788 204.989L171.291 205.258C171.489 205.272 171.662 205.138 171.677 204.957L172.194 197.956C172.208 197.779 172.371 197.644 172.565 197.655L178.26 197.899C178.455 197.906 178.621 197.775 178.632 197.598L179.567 184.952C179.581 184.774 179.744 184.64 179.939 184.651L182.474 184.764C182.761 184.778 182.945 184.495 182.797 184.268L178.058 176.951C177.92 176.739 177.591 176.728 177.442 176.93H177.449Z" fill="#FF788F"/>
<path d="M198.62 212.331L183.816 223.979C183.147 224.507 183.08 225.442 183.668 226.058L190.442 233.176C191.02 233.782 192.025 233.852 192.681 233.335L195.772 230.902C195.836 230.849 195.932 230.856 195.988 230.917L199.664 234.777C199.764 234.883 199.944 234.812 199.944 234.667L199.934 227.708C199.934 227.658 199.955 227.612 199.994 227.581L207.477 221.695C208.15 221.167 208.217 220.229 207.626 219.609L200.854 212.494C200.277 211.888 199.271 211.818 198.613 212.331H198.62Z" fill="black"/>
<path d="M211.741 210.309L196.941 221.95C196.272 222.478 196.204 223.413 196.792 224.029L203.56 231.144C204.137 231.749 205.15 231.824 205.805 231.307L213.32 225.396C213.356 225.368 213.398 225.357 213.441 225.364L221.019 226.373C221.172 226.395 221.264 226.214 221.157 226.101L217.542 222.301C217.474 222.234 217.485 222.12 217.559 222.064L220.605 219.67C221.274 219.142 221.342 218.207 220.754 217.591L213.986 210.476C213.409 209.87 212.396 209.796 211.737 210.313L211.741 210.309Z" fill="#FF788F"/>
<path d="M205.479 223.403C205.922 223.867 205.873 224.565 205.37 224.961C204.867 225.358 204.102 225.301 203.659 224.834C203.216 224.366 203.266 223.672 203.769 223.276C204.272 222.879 205.037 222.936 205.479 223.403Z" fill="white"/>
<path d="M209.683 220.095C210.126 220.559 210.076 221.256 209.573 221.653C209.07 222.049 208.305 221.993 207.863 221.525C207.42 221.058 207.47 220.364 207.973 219.967C208.475 219.57 209.24 219.627 209.683 220.095Z" fill="white"/>
<path d="M213.887 216.786C214.329 217.25 214.28 217.948 213.777 218.344C213.274 218.741 212.509 218.684 212.066 218.217C211.624 217.753 211.673 217.055 212.176 216.659C212.679 216.262 213.444 216.319 213.887 216.786Z" fill="white"/>
<path d="M157.107 38.1367L159.735 58.4859L149.206 55.5182C148.388 55.288 147.531 55.7023 147.294 56.4461L146.475 59.0065C146.238 59.7502 146.709 60.54 147.527 60.7702L163.914 65.3882C165.277 65.7707 166.602 64.772 166.435 63.4829L162.699 34.5174C162.593 33.6993 161.527 33.3097 160.854 33.841L157.971 36.1075C157.334 36.6068 157.015 37.3682 157.114 38.1367H157.107Z" fill="black"/>
<path d="M92.0225 67.2123L107.722 54.8633" stroke="#FF788F" stroke-width="1.2" stroke-linecap="round" stroke-linejoin="round"/>
<path d="M117.871 46.8762C118.527 47.5668 118.456 48.5973 117.712 49.1817C116.968 49.766 115.835 49.681 115.18 48.9904C114.525 48.2999 114.596 47.2693 115.339 46.685C116.083 46.1006 117.216 46.1856 117.871 46.8762Z" fill="#FF788F" stroke="#FF788F" stroke-width="1.2" stroke-miterlimit="10"/>
<path d="M265.89 227.255L252.38 237.883C252.057 238.138 251.6 237.816 251.732 237.426L252.16 236.152C252.394 235.454 252.826 234.841 253.403 234.388L266.953 223.728C267.278 223.47 267.739 223.802 267.597 224.192L267.112 225.555C266.875 226.225 266.45 226.813 265.89 227.255V227.255Z" fill="#FF788F"/>
<path d="M43.0261 96.6758C38.0043 100.628 37.4695 108.047 41.8787 112.676L189.642 267.838C193.499 271.889 199.803 272.339 204.198 268.883L310.826 185" stroke="#FF788F" stroke-width="1.2" stroke-linecap="round" stroke-linejoin="round"/>
<path d="M103.33 236.949C101.191 229.572 99.2255 220.648 98.2126 210.42C96.7818 195.957 92.9323 174.039 102.799 173.504C108.199 173.21 113.437 181.401 117.836 190.765C120.69 196.838 155.627 247.935 160.556 281.291" fill="#FF788F"/>
<path d="M157.068 266.963C146.773 234.955 120.304 196.017 117.836 190.765C113.437 181.401 108.199 173.21 102.799 173.504C101.899 173.553 101.12 173.784 100.437 174.162C105.798 175.26 113.625 195.394 126.65 217.588C136.765 234.817 147.375 245.806 157.064 266.963H157.068Z" fill="white"/>
<path d="M103.33 236.949C101.191 229.572 99.2255 220.648 98.2126 210.42C96.7818 195.957 92.9323 174.039 102.799 173.504C108.199 173.21 113.437 181.401 117.836 190.765C120.69 196.838 155.627 247.935 160.556 281.291" stroke="black" stroke-width="1.2" stroke-linecap="round" stroke-linejoin="round"/>
<path d="M85.9415 174.801C77.9742 187.548 67.76 215.796 81.7486 251.501" stroke="black" stroke-width="1.2" stroke-linecap="round" stroke-linejoin="round"/>
<path d="M239.474 81.6875C238.688 83.6707 237.682 92.3437 240.891 94.1215C245.513 96.682 251.916 91.26 255.623 82.9376C256.838 79.7184 268.932 65.5597 283.941 79.3218L274.988 68.6797L239.474 81.6875V81.6875Z" fill="#FF788F" stroke="black" stroke-width="1.2" stroke-linecap="round" stroke-linejoin="round"/>
<path d="M318.776 154C313.498 123.894 318.707 90.1161 309.4 66.9375L240.955 71.2899C237.991 76.3259 234.832 82.2826 238.012 85.1583C243.299 88.8981 253.931 78.1639 264.442 74.8385C272.435 72.3099 288.346 74.6154 281.685 102.398C277.634 119.291 273.862 136.251 269.952 153.179V177.424C277.92 190.357 285.889 203.287 293.861 216.22" fill="#FF788F"/>
<path d="M318.776 154C313.498 123.894 318.707 90.1161 309.4 66.9375L240.955 71.2899C237.991 76.3259 234.832 82.2826 238.012 85.1583C243.299 88.8981 253.931 78.1639 264.442 74.8385C272.435 72.3099 288.346 74.6154 281.685 102.398C277.634 119.291 273.862 136.251 269.952 153.179V177.424C277.92 190.357 285.889 203.287 293.861 216.22" stroke="black" stroke-width="1.2" stroke-linecap="round" stroke-linejoin="round"/>
<path d="M325.723 72.7312L193.861 79.3892C192.727 79.4458 191.598 79.2829 190.528 78.9111L174.223 73.2376C173.515 72.9897 173.465 72.0088 174.145 71.6936L189.795 64.4088C190.822 63.9307 191.934 63.6545 193.064 63.5978L324.926 56.9399C329.286 56.7203 333.001 60.0776 333.22 64.4371C333.44 68.7967 330.083 72.5116 325.723 72.7312V72.7312Z" fill="white" stroke="black" stroke-width="1.2" stroke-miterlimit="10"/>
<path d="M188.899 71.7254C188.68 67.3659 190.22 63.743 192.345 63.6367" stroke="black" stroke-width="1.2" stroke-linecap="round" stroke-linejoin="round"/>
<path d="M193.142 79.4238C191.782 79.491 190.518 78.1028 189.721 75.9531" stroke="black" stroke-width="1.2" stroke-linecap="round" stroke-linejoin="round"/>
<path d="M286.034 109.105C279.553 101.714 271.054 77.1147 264.991 68.5692C263.557 66.547 260.996 65.5554 258.606 66.2141C246.002 69.6812 255.886 102.666 258.662 124.521C264.15 167.748 275.929 204.23 296.229 224.002C300 218.002 302 216.502 304 210.002" fill="#FF788F"/>
<path d="M264.091 155.958C266 124.552 249.71 74.2035 260.051 66.0156C259.569 66.0192 259.084 66.0829 258.606 66.2139C246.002 69.681 255.886 102.666 258.662 124.52C260.054 135.485 261.85 146.017 264.088 155.954V155.961L264.091 155.958Z" fill="white"/>
<path d="M286.034 109.105C279.553 101.714 271.054 77.1147 264.991 68.5692C263.557 66.547 260.996 65.5554 258.606 66.2141C246.002 69.6812 255.886 102.666 258.662 124.521C264.129 167.585 275.84 203.956 296 223.779" stroke="black" stroke-width="1.2" stroke-linecap="round" stroke-linejoin="round"/>
<path d="M279.224 59.2472C274.436 61.3544 240.505 68.8198 238.462 60.5753C238.171 59.3995 238.671 58.1635 239.606 57.3915C245.793 52.2989 276.851 30.5933 304.637 57.9617" fill="#FF788F"/>
<path d="M276.879 44.5283C258.953 43.1896 243.738 53.9911 239.606 57.3908C238.671 58.1629 238.168 59.3989 238.462 60.5746C238.525 60.8261 238.618 61.0669 238.738 61.29C248.782 59.9513 259.455 49.3907 276.879 44.5283V44.5283Z" fill="white"/>
<path d="M279.224 59.2472C274.436 61.3544 240.505 68.8198 238.462 60.5753C238.171 59.3995 238.671 58.1635 239.606 57.3915C245.793 52.2989 276.851 30.5933 304.637 57.9617" stroke="black" stroke-width="1.2" stroke-linecap="round" stroke-linejoin="round"/>
<path d="M317.514 145.152C316.675 154.519 281.37 179.752 268.221 171.876C270.154 180.67 273.837 192.852 281.239 206.016C285.711 213.963 290.596 220.592 295.243 226.001C310 207.001 318 168.501 318.939 151.001C318.408 148.994 317.935 147.042 317.514 145.152Z" fill="black" stroke="black" stroke-width="1.2" stroke-linecap="round" stroke-linejoin="round"/>
<path d="M275.729 194.961C277.29 198.527 279.111 202.232 281.239 206.017C285.72 213.982 290.472 220.707 295 226.198" stroke="#FF788F" stroke-width="1.2" stroke-linecap="round" stroke-linejoin="round"/>
<path d="M277.233 198.233C285.571 203.225 302.505 194.734 314 185.461" stroke="#FF788F" stroke-width="1.2" stroke-linecap="round" stroke-linejoin="round"/>
<path d="M279.224 59.2477L305.947 57.8984" stroke="black" stroke-width="1.2" stroke-linecap="round" stroke-linejoin="round"/>
<path d="M45.8737 94.7229L45.2893 94.1562L43.0511 95.9164C42.5766 96.2917 42.1799 96.6813 41.8435 97.0709C38.8226 100.563 39.3928 105.45 39.669 107.15C41.8754 104.844 44.0817 102.539 46.288 100.23L45.8737 94.7193V94.7229Z" fill="black"/>
<path d="M61.5126 142.937L60.344 144.835C59.8304 145.667 59.9438 146.744 60.6202 147.452L78.501 166.229C79.018 166.771 79.9069 166.679 80.3 166.041L81.4687 164.143C81.9822 163.311 81.8689 162.234 81.1925 161.526L63.3117 142.749C62.7946 142.207 61.9057 142.299 61.5126 142.937V142.937Z" stroke="#FF788F" stroke-width="1.2" stroke-linecap="round" stroke-linejoin="round"/>
<path d="M185.103 287.224V292.671C185.103 294.523 186.625 296.042 188.478 296C226.407 295.146 260.783 279.875 286.356 255.461C287.698 254.179 287.695 252.036 286.388 250.726L279.897 244.224C304.149 219.965 319.147 186.462 319.147 149.451H328.326C330.178 149.451 331.701 147.928 331.659 146.076C331.379 133.737 329.576 121.774 326.428 110.367" stroke="white" stroke-width="2" stroke-linecap="round" stroke-linejoin="round"/>
<path d="M51.062 149.453H41.8861C40.0304 149.453 38.5111 150.972 38.5536 152.825C39.1734 180.285 47.3506 205.893 61.0879 227.638C66.3221 235.921 72.3603 243.649 79.0962 250.7C80.3746 252.038 82.5208 252.038 83.8311 250.728L90.3332 244.237C113.618 267.515 145.424 282.272 180.665 283.416" stroke="white" stroke-width="2" stroke-linecap="round" stroke-linejoin="round"/>
</svg>
